<mxfile host="app.diagrams.net" modified="2023-11-04T11:46:31.636Z" agent="Mozilla/5.0 (X11; Linux x86_64; rv:109.0) Gecko/20100101 Firefox/119.0" etag="iPwdK4E9FEQ0vf1uJ9BO" version="22.0.8" type="github">
  <diagram name="Page-1" id="m7MwxCSqvZ7dHv7TJQ93">
    <mxGraphModel dx="1783" dy="521" grid="1" gridSize="10" guides="1" tooltips="1" connect="1" arrows="1" fold="1" page="1" pageScale="1" pageWidth="827" pageHeight="1169" math="0" shadow="0">
      <root>
        <mxCell id="0" />
        <mxCell id="1" parent="0" />
        <mxCell id="74x4yeRU4BjxGWpXoHVY-1" value="" style="verticalLabelPosition=bottom;verticalAlign=top;html=1;shadow=0;dashed=0;strokeWidth=1;shape=mxgraph.android.phone2;strokeColor=#c0c0c0;" vertex="1" parent="1">
          <mxGeometry x="-20" y="10" width="200" height="390" as="geometry" />
        </mxCell>
        <mxCell id="74x4yeRU4BjxGWpXoHVY-2" value="" style="verticalLabelPosition=bottom;verticalAlign=top;html=1;shadow=0;dashed=0;strokeWidth=1;shape=mxgraph.android.phone2;strokeColor=#c0c0c0;" vertex="1" parent="1">
          <mxGeometry x="470" y="10" width="200" height="390" as="geometry" />
        </mxCell>
        <mxCell id="74x4yeRU4BjxGWpXoHVY-3" value="" style="verticalLabelPosition=bottom;verticalAlign=top;html=1;shadow=0;dashed=0;strokeWidth=1;shape=mxgraph.android.phone2;strokeColor=#c0c0c0;" vertex="1" parent="1">
          <mxGeometry x="240" y="10" width="200" height="390" as="geometry" />
        </mxCell>
        <mxCell id="74x4yeRU4BjxGWpXoHVY-4" value="" style="verticalLabelPosition=bottom;verticalAlign=top;html=1;shadow=0;dashed=0;strokeWidth=1;shape=mxgraph.android.phone2;strokeColor=#c0c0c0;" vertex="1" parent="1">
          <mxGeometry x="-280" width="200" height="390" as="geometry" />
        </mxCell>
        <mxCell id="74x4yeRU4BjxGWpXoHVY-6" value="" style="edgeStyle=segmentEdgeStyle;endArrow=classic;html=1;curved=0;rounded=0;endSize=8;startSize=8;sourcePerimeterSpacing=0;targetPerimeterSpacing=0;exitX=1.012;exitY=0.539;exitDx=0;exitDy=0;exitPerimeter=0;entryX=-0.005;entryY=0.592;entryDx=0;entryDy=0;entryPerimeter=0;" edge="1" parent="1" source="74x4yeRU4BjxGWpXoHVY-4" target="74x4yeRU4BjxGWpXoHVY-1">
          <mxGeometry width="100" relative="1" as="geometry">
            <mxPoint x="-40" y="200" as="sourcePoint" />
            <mxPoint x="10" y="240" as="targetPoint" />
            <Array as="points">
              <mxPoint x="-40" y="210" />
              <mxPoint x="-40" y="241" />
            </Array>
          </mxGeometry>
        </mxCell>
      </root>
    </mxGraphModel>
  </diagram>
</mxfile>
